Coordinates
version=1
nRows=7
nColumns=63
inDegrees=yes

Units are S.I. units (second, meters, Newtons, ...)
If the header above contains a line with 'inDegrees', this indicates whether rotational values are in degrees (yes) or radians (no).

endheader
time	pelvis_tilt	pelvis_list	pelvis_rotation	pelvis_tx	pelvis_ty	pelvis_tz	hip_flexion_r	hip_adduction_r	hip_rotation_r	knee_angle_r	knee_angle_r_beta	ankle_angle_r	subtalar_angle_r	mtp_angle_r	hip_flexion_l	hip_adduction_l	hip_rotation_l	knee_angle_l	knee_angle_l_beta	ankle_angle_l	subtalar_angle_l	mtp_angle_l	L5_S1_Flex_Ext	L5_S1_Lat_Bending	L5_S1_axial_rotation	L4_L5_Flex_Ext	L4_L5_Lat_Bending	L4_L5_axial_rotation	L3_L4_Flex_Ext	L3_L4_Lat_Bending	L3_L4_axial_rotation	L2_L3_Flex_Ext	L2_L3_Lat_Bending	L2_L3_axial_rotation	L1_L2_Flex_Ext	L1_L2_Lat_Bending	L1_L2_axial_rotation	L1_T12_Flex_Ext	L1_T12_Lat_Bending	L1_T12_axial_rotation	Abs_r3	Abs_r2	Abs_r1	Abs_t1	Abs_t2	neck_flexion	neck_bending	neck_rotation	arm_flex_r	arm_add_r	arm_rot_r	elbow_flex_r	pro_sup_r	wrist_flex_r	wrist_dev_r	arm_flex_l	arm_add_l	arm_rot_l	elbow_flex_l	pro_sup_l	wrist_flex_l	wrist_dev_l
      6.50000000	    -31.34865442	     -1.52226110	    -86.60105454	      1.70521160	      0.78786616	      0.05817318	     20.13296773	      1.86276142	     21.56718073	     39.74036169	      0.69360016	      4.29896569	      1.29624752	      0.00000000	     23.12286261	      2.45775626	    -17.91425551	     42.66781495	      0.74469386	     11.60286742	    -19.50128167	      0.00000000	     -0.14249931	      1.65948891	      1.97747905	     -0.26463546	      2.20712024	      2.10107149	     -0.23411211	      4.03488132	      2.10107149	     -0.16286246	      4.03488132	      1.73029416	     -0.13232486	      3.38402978	      1.60670172	     -0.08142410	      2.57054831	      1.48310928	     -1.01785829	     18.77247039	     10.99814521	      0.00000000	      0.00000000	      0.00000000	      0.00000000	     -0.00000000	      2.87780297	    -25.79724250	   -460.38596161	     25.55414720	     81.67051509	      0.00000000	      5.00000014	    -96.07733690	   -138.39251737	    138.15640681	     54.74385425	     82.79303843	      0.00000000	      5.00000014
      6.51666670	    -31.52542576	     -1.38355483	    -86.60439677	      1.70408132	      0.78858801	      0.05783215	     20.28581897	      1.99661315	     21.13861152	     39.57098900	      0.69064405	      4.18541024	      1.49162645	      0.00000000	     23.41946997	      2.20032393	    -17.75477918	     42.87464334	      0.74830369	     11.62664203	    -19.51711532	      0.00000000	     -0.15725229	      1.76243318	      1.75440273	     -0.29203322	      2.34403613	      1.86405290	     -0.25834978	      4.28518003	      1.86405290	     -0.17972364	      4.28518003	      1.53510239	     -0.14602447	      3.59395373	      1.42545222	     -0.08985396	      2.73000899	      1.31580205	     -1.12323735	     19.93699658	      9.75746167	      0.00000000	      0.00000000	      0.00000000	      0.00000000	     -0.00000000	      4.31291509	    -25.69865107	   -458.90655362	     25.78508823	     81.03898082	      0.00000000	      5.00000014	    -99.48742022	   -135.59532886	    137.14783795	     54.47013444	     83.21058821	      0.00000000	      5.00000014
      6.53333330	    -31.67363905	     -1.32944687	    -86.72972620	      1.70237865	      0.78981503	      0.05727057	     20.41782036	      2.09764387	     20.55817619	     39.43547724	      0.68827892	      4.14526503	      2.02665993	      0.00000000	     23.62970512	      1.87403647	    -17.71761161	     43.08458394	      0.75196785	     11.67415204	    -19.52772303	      0.00000000	     -0.17061997	      1.80391207	      1.82946846	     -0.31685835	      2.39920306	      1.94381024	     -0.28031155	      4.38603181	      1.94381024	     -0.19500157	      4.38603181	      1.60078491	     -0.15843771	      3.67853750	      1.48644313	     -0.09749225	      2.79425980	      1.37210135	     -1.21872140	     20.40621414	     10.17495475	      0.00000000	      0.00000000	      0.00000000	      0.00000000	     -0.00000000	      4.28911543	    -25.53985506	   -458.80811067	     25.51828354	     81.02936258	      0.00000000	      5.00000014	   -101.59250770	   -135.41103223	    136.52988628	     53.51949881	     83.13497045	      0.00000000	      5.00000014
      6.55000000	    -31.96077163	     -1.27486062	    -86.80646519	      1.70042840	      0.79146382	      0.05673364	     20.49764712	      2.25932861	     19.65895847	     39.13088908	      0.68296285	      4.05775215	      2.82725270	      0.00000000	     23.86763378	      1.38285259	    -17.56940833	     43.32332141	      0.75613460	     11.69014667	    -19.54026384	      0.00000000	     -0.18163223	      1.83921760	      1.84545396	     -0.33730921	      2.44615940	      1.96079483	     -0.29840359	      4.47187366	      1.96079483	     -0.20758747	      4.47187366	      1.61477222	     -0.16866369	      3.75053252	      1.49943134	     -0.10378465	      2.84894806	      1.38409047	     -1.29738084	     20.80559729	     10.26386129	      0.00000000	      0.00000000	      0.00000000	      0.00000000	     -0.00000000	      4.55219146	    -25.25471781	   -458.40155955	     25.45073242	     81.00442304	      0.00000000	      5.00000014	   -104.31556233	   -135.04135693	    135.66714015	     52.84831296	     83.02679841	      0.00000000	      5.00000014
      6.56666670	    -32.04209781	     -1.31204486	    -86.87892111	      1.69774743	      0.79350679	      0.05589727	     20.56800373	      2.27708806	     18.76713343	     38.98644381	      0.68044181	      3.76119541	      3.38530974	      0.00000000	     24.03041155	      1.02292330	    -17.51531881	     43.59571309	      0.76088873	     11.77401444	    -19.54348572	      0.00000000	     -0.20781521	      1.79674395	      1.89541435	     -0.38593363	      2.38966946	      2.01387774	     -0.34141961	      4.36860324	      2.01387774	     -0.23751201	      4.36860324	      1.65848755	     -0.19297721	      3.66392027	      1.54002416	     -0.11874561	      2.78315638	      1.42156076	     -1.48440327	     20.32512693	     10.54172598	      0.00000000	      0.00000000	      0.00000000	      0.00000000	     -0.00000000	      4.79870058	    -24.53601127	   -458.12263683	     25.29322920	     81.00394483	      0.00000000	      5.00000014	   -106.30170823	   -135.41462543	    135.23329143	     52.48545688	     82.97726648	      0.00000000	      5.00000014
      6.58333330	    -32.46745921	     -0.99818261	    -86.87204862	      1.69560627	      0.79556328	      0.05581959	     20.80190196	      2.39252752	     17.33980342	     38.41864288	      0.67053181	      3.79382216	      4.86155372	      0.00000000	     24.46117065	      0.43516796	    -17.19763306	     43.66336878	      0.76206955	     11.71423623	    -19.55889524	      0.00000000	     -0.20772520	      1.82716344	      1.56680038	     -0.38576648	      2.43012738	      1.66472540	     -0.34127174	      4.44256519	      1.66472540	     -0.23740914	      4.44256519	      1.37095033	     -0.19289362	      3.72595169	      1.27302531	     -0.11869418	      2.83027617	      1.17510029	     -1.48376036	     20.66923830	      8.71407368	      0.00000000	      0.00000000	      0.00000000	      0.00000000	     -0.00000000	      6.48095068	    -23.70602669	   -454.54088680	     26.10952435	     80.99742060	      0.00000000	      5.00000014	   -113.07211333	   -133.47080247	    131.47025466	     55.40320836	     82.55379875	      0.00000000	      5.00000014
      6.60000000	    -32.57910908	     -1.01040937	    -87.00650139	      1.69282113	      0.79814869	      0.05536049	     20.82510389	      2.32283420	     16.12285733	     38.13210331	      0.66553075	      3.76714260	      6.19393642	      0.00000000	     24.50956533	      0.03762590	    -17.14306663	     43.69336283	      0.76259304	     11.73552547	    -19.55346982	      0.00000000	     -0.21117440	      1.75303016	      1.69938530	     -0.39217198	      2.33153011	      1.80559688	     -0.34693842	      4.26231753	      1.80559688	     -0.24135122	      4.26231753	      1.48696214	     -0.19609655	      3.57477910	      1.38075056	     -0.12066505	      2.71544372	      1.27453898	     -1.50839761	     19.83062778	      9.45147124	      0.00000000	      0.00000000	      0.00000000	      0.00000000	     -0.00000000	      6.16374660	    -22.77647949	   -454.07141447	     25.89663245	     81.00274315	      0.00000000	      5.00000014	   -115.84241541	   -134.93785767	    130.98125715	     55.21307825	     82.51258517	      0.00000000	      5.00000014
